# xmcd
#
# Track frame offsets: 
#        150
#        16098
#        27160
#        47100
#        64905
#        87750
#        101590
#        120440
#        144498
#
# Disc length: 2166 seconds
#
# Revision: 3
# Processed by: cddbd v1.5.2PL0 Copyright (c) Steve Scherf et al.
# Submitted via: ExactAudioCopy v1.0b3
#
DISCID=6b087409
DTITLE=Muddy Waters - The London Muddy Waters Sessions
DYEAR=1972
DGENRE=Blues
TTITLE0=Blind Man Blues
TTITLE1=Key To The Highway
TTITLE2=Young Fashioned Ways
TTITLE3=I'm Gonna Move To The Outskirts Of Town
TTITLE4=Who's Gonna Be Your Sweet Man When I'm Gone
TTITLE5=Walkin' Blues
TTITLE6=I'm Ready
TTITLE7=Sad Sad Day
TTITLE8=I Don't Know Why
EXTD=
EXTT0=
EXTT1=
EXTT2=
EXTT3=
EXTT4=
EXTT5=
EXTT6=
EXTT7=
EXTT8=
PLAYORDER=
